<svg xmlns="http://www.w3.org/2000/svg" version="1.1" xmlns:xlink="http://www.w3.org/1999/xlink" xmlns:svgjs="http://svgjs.com/svgjs" width="300" height="300"><svg id="SvgjsSvg1000" xmlns="http://www.w3.org/2000/svg" xmlns:xlink="http://www.w3.org/1999/xlink" viewBox="0 0 300 300" shape-rendering="geometricPrecision" text-rendering="geometricPrecision"><rect width="260.090758" height="259.374254" rx="26" ry="26" transform="translate(19.954621 20.062097)" fill="#000104" stroke-width="0"></rect><rect width="201.337473" height="23.644614" rx="0" ry="0" transform="translate(50.764271 45.856222)" fill="#e6e8ec" stroke-width="0"></rect><rect width="40.840697" height="39.407691" rx="8" ry="8" transform="translate(50.764288 90.279438)" fill="#cf5707" stroke-width="0"></rect><rect width="40.840697" height="39.407691" rx="8" ry="8" transform="translate(50.764288 149.749224)" fill="#cf5707" stroke-width="0"></rect><rect width="40.840697" height="39.407691" rx="8" ry="8" transform="translate(50.764288 210.652019)" fill="#cf5707" stroke-width="0"></rect><rect width="40.840697" height="39.407691" rx="8" ry="8" transform="translate(103.069025 90.279437)" fill="#cf5707" stroke-width="0"></rect><rect width="40.840697" height="39.407691" rx="8" ry="8" transform="translate(103.069025 150)" fill="#cf5707" stroke-width="0"></rect><rect width="40.840697" height="39.407691" rx="8" ry="8" transform="translate(103.069025 210.652019)" fill="#cf5707" stroke-width="0"></rect><rect width="40.840697" height="39.407691" rx="8" ry="8" transform="translate(155.732037 90.279437)" fill="#cf5707" stroke-width="0"></rect><rect width="40.840697" height="39.407691" rx="8" ry="8" transform="translate(155.732037 149.749224)" fill="#cf5707" stroke-width="0"></rect><rect width="40.840697" height="39.407691" rx="8" ry="8" transform="translate(155.732037 210.652019)" fill="#cf5707" stroke-width="0"></rect><rect width="40.840697" height="39.407691" rx="8" ry="8" transform="translate(212.335804 90.279437)" fill="#cf5707" stroke-width="0"></rect><rect width="40.840697" height="39.407691" rx="8" ry="8" transform="translate(212.335804 150)" fill="#cf5707" stroke-width="0"></rect><rect width="40.840697" height="39.407691" rx="8" ry="8" transform="translate(212.335804 210.652019)" fill="#cf5707" stroke-width="0"></rect></svg><style>@media (prefers-color-scheme: light) { :root { filter: none; } }
</style></svg>